<svg width="1727" height="191" viewBox="0 0 1727 191" fill="none" xmlns="http://www.w3.org/2000/svg">
<mask id="mask0_1_530" style="mask-type:alpha" maskUnits="userSpaceOnUse" x="0" y="-9" width="1727" height="244">
<path d="M1727 -8.77386H0V234.194H1727V-8.77386Z" fill="url(#paint0_linear_1_530)"/>
</mask>
<g mask="url(#mask0_1_530)">
<path d="M1727 191C1727 191 1684.5 190.508 1640.65 187.625C1374.71 170.143 1215.31 -35.4329 980.207 55.4102C868.56 98.5371 816.682 177.164 681.693 175.072C571.866 173.317 548.119 120.944 430.198 116.287C282.458 110.416 232.874 168.255 109.893 185.803C78.7667 190.242 41.8258 190.663 -0.674622 190.663" stroke="url(#paint1_linear_1_530)" stroke-width="3" stroke-miterlimit="10"/>
<path d="M1727 191C1727 191 1684.5 190.508 1640.65 187.625C1374.71 170.143 1215.31 -35.4329 980.207 55.4102C868.56 98.5371 816.682 177.164 681.693 175.072C571.866 173.317 548.119 120.944 430.198 116.287C282.458 110.416 232.874 168.255 109.893 185.803C78.7667 190.242 41.8258 190.663 -0.674622 190.663" stroke="url(#paint2_linear_1_530)" stroke-width="3" stroke-miterlimit="10"/>
<path d="M1727 191C1727 191 1684.5 190.508 1640.65 187.625C1374.71 170.143 1215.31 -35.4329 980.207 55.4102C868.56 98.5371 816.682 177.164 681.693 175.072C571.866 173.317 548.119 120.944 430.198 116.287C282.458 110.416 232.874 168.255 109.893 185.803C78.7667 190.242 41.8258 190.663 -0.674622 190.663" stroke="url(#paint3_linear_1_530)" stroke-width="3" stroke-miterlimit="10"/>
<path d="M-365.167 -106.569C-97.1445 171.968 74.2738 205.983 182.886 181.686C244.275 167.986 307.419 142.609 417.65 138.019C537.528 133.093 576.048 178.649 672.517 180.066C816.48 182.159 859.048 82.6767 991.204 28.8188C1235.88 -70.9332 1368.51 151.248 1710.34 150.1C1827.25 149.695 2006.09 123.644 2227.49 -16.8052" stroke="url(#paint4_linear_1_530)" stroke-width="3" stroke-miterlimit="10"/>
<path d="M-365.167 -106.569C-97.1445 171.968 74.2738 205.983 182.886 181.686C244.275 167.986 307.419 142.609 417.65 138.019C537.528 133.093 576.048 178.649 672.517 180.066C816.48 182.159 859.048 82.6767 991.204 28.8188C1235.88 -70.9332 1368.51 151.248 1710.34 150.1C1827.25 149.695 2006.09 123.644 2227.49 -16.8052" stroke="url(#paint5_linear_1_530)" stroke-width="3" stroke-miterlimit="10"/>
<path d="M1901.05 -62.0918H-489.766V253.092H1901.05V-62.0918Z" stroke="#FF0000" stroke-width="8" stroke-miterlimit="10"/>
</g>
<defs>
<linearGradient id="paint0_linear_1_530" x1="9.21348e-06" y1="141.902" x2="1727" y2="141.902" gradientUnits="userSpaceOnUse">
<stop stop-color="white" stop-opacity="0"/>
<stop offset="0.0751022" stop-color="white" stop-opacity="0.924898"/>
<stop offset="0.92191" stop-color="white"/>
<stop offset="1" stop-color="white" stop-opacity="0"/>
</linearGradient>
<linearGradient id="paint1_linear_1_530" x1="-310.658" y1="102.112" x2="2268.6" y2="102.112" gradientUnits="userSpaceOnUse">
<stop offset="0.101777" stop-color="#9D92FC" stop-opacity="0"/>
<stop offset="0.2537" stop-color="#FF7BAC"/>
<stop offset="0.3432" stop-color="#FFC338"/>
<stop offset="0.4192" stop-color="#FFEFCC"/>
<stop offset="0.5105" stop-color="#0CA7FF"/>
<stop offset="0.5981" stop-color="#9D92FC"/>
<stop offset="0.6587" stop-color="#FF7BAC"/>
<stop offset="0.737425" stop-color="#FFD166"/>
<stop offset="0.785352" stop-color="#FFD166" stop-opacity="0"/>
</linearGradient>
<linearGradient id="paint2_linear_1_530" x1="1461.28" y1="32.341" x2="264.706" y2="32.341" gradientUnits="userSpaceOnUse">
<stop stop-color="#FF5600"/>
<stop offset="0.5" stop-color="#8571FF"/>
<stop offset="1" stop-color="#008FF1"/>
</linearGradient>
<linearGradient id="paint3_linear_1_530" x1="1520.67" y1="32.341" x2="249.687" y2="32.341" gradientUnits="userSpaceOnUse">
<stop stop-color="#008FF1"/>
<stop offset="0.505208" stop-color="#8571FF"/>
<stop offset="1" stop-color="#C37AE5"/>
</linearGradient>
<linearGradient id="paint4_linear_1_530" x1="-360.366" y1="30.7381" x2="2221.62" y2="134.845" gradientUnits="userSpaceOnUse">
<stop offset="0.2088" stop-color="#1BA5FF"/>
<stop offset="0.3272" stop-color="#9E9BFF"/>
<stop offset="0.4528" stop-color="#FF73FF"/>
<stop offset="0.5479" stop-color="#9C8FFC"/>
<stop offset="0.6309" stop-color="#00A5E9"/>
<stop offset="0.7402" stop-color="#FF73FF"/>
<stop offset="0.8099" stop-color="#FCAF00"/>
</linearGradient>
<linearGradient id="paint5_linear_1_530" x1="1828.74" y1="-106.569" x2="33.0803" y2="-106.569" gradientUnits="userSpaceOnUse">
<stop stop-color="#DB00FF"/>
<stop offset="0.5" stop-color="#8571FF"/>
<stop offset="1" stop-color="#008FF1"/>
</linearGradient>
</defs>
</svg>
